<svg fill="none" height="256" viewBox="0 0 32 32" width="256" xmlns="http://www.w3.org/2000/svg"><g fill="#23a9f2"><path d="m23.8194 10.0992c.0063.0228.0126.0457.0126.0698.0169.1648.0253.3304.025.496v.008c.0014.8005-.1962 1.5888-.575 2.294.005-.034-1.1854 1.4491-1.7335 1.8023-.7602.4897-1.6442.7526-2.5485.7577h-.408c1.1166-.5209 2.1179-1.2597 2.945-2.173.0653-.0716.1084-.1606.1241-.2562.0156-.0957.0031-.1938-.036-.2825-.039-.0886-.1031-.164-.1842-.217-.0812-.053-.176-.0812-.2729-.0813-.069-.0001-.1372.0146-.2.043-.0637.0279-.121.0688-.168.12-1.6229 1.72-3.8507 2.7419-6.213 2.85h-1.587c-.8819-.0029-1.7453-.2527-2.4925-.721-.51344-.3218-1.72739-1.7616-1.7235-1.729-.4193-.7328-.63927-1.5627-.638-2.407v-.008c0-.126.005-.25.014-.373.00094-.0149.0045-.0292.00803-.0434.00401-.0161.00797-.0321.00797-.0486.02214-.25177.06359-.50151.124-.74696v-.012c.2707-1.04019.87913-1.96104 1.7298-2.61804.8506-.65699 1.8954-1.01294 2.9702-1.01196h6c1.0242.00005 2.0221.32428 2.8508.92624.8286.60195 1.4455 1.45074 1.7622 2.42476l.009.013.006.026c.003.0095.007.0185.011.0275s.008.018.011.0275c.0107.03629.0168.07457.0229.11287.0054.03347.0107.06695.0191.09913.0505.19078.0892.38448.116.57996.0021.0174.0068.0343.0114.0512zm-10.0194-1.95916-.043.06c-.0248.03792-.0448.07723-.0646.11617-.0179.03499-.0356.0697-.0564.10283 1.2063 1.07053 2.0418 2.49626 2.386 4.07196.3396-1.5213 1.1379-2.90173 2.287-3.95496-.0136-.023-.027-.04602-.0405-.06903-.068-.1161-.1359-.23198-.2135-.34297-.238-.34499-.5565-.62675-.928-.82087-.3714-.19413-.7846-.29476-1.2037-.29318-.4191.00157-.8315.10531-1.2015.30222s-.6864.48106-.9218.82783zm-.8 6.38696h1.534v.003c.1801-.0074.3575-.0269.5356-.0464.0138-.0015.0276-.0031.0414-.0046.0927-.3979.105-.8103.036-1.213l-.047-.278c-.2591-1.5358-1.0511-2.9312-2.237-3.94096-.2513-.21437-.5451-.37309-.8621-.46573-.317-.09263-.65-.11708-.9772-.07174-.3271.04535-.6409.15946-.9208.33483-.27987.17537-.51942.40802-.7029.68264-.18995.57076-.2417 1.17836-.151 1.77296.0907.5947.32126 1.1593.67272 1.6474.35148.4881.81378.8859 1.34898 1.1605.5351.2746 1.1278.4183 1.7293.4191zm8.6962-2.9077c.339.1287.62.3759.7908.6957l.001.011c.4066-.857.4779-1.835.2-2.74196-.2524-.39844-.6208-.70999-1.0556-.89271s-.9152-.22784-1.3764-.12929c-.0854.01997-.1696.04502-.252.075-.2044.06646-.3986.16103-.577.281-.0834.04843-.1636.10221-.24.161l-.022.018-.031.027c-1.1674 1.01066-1.9454 2.39706-2.2 3.91996l-.039.24c-.0428.2645-.0505.5335-.023.8 1.2106-.4251 2.3015-1.1346 3.181-2.069.1615-.179.3639-.3162.59-.4.3401-.1259.7142-.1244 1.0532.0043z"/><path d="m28.281 8.58198 1.719-.688.008 4.99502-1.008.4v.211c-.0008 1.9314-.5344 3.8252-1.542 5.473h2.542v5.114h-7.431c-.0331-.0001-.0652.0108-.0914.0309-.0263.0201-.0451.0483-.0537.0803-.0085.0319-.0063.0657.0064.0963.0127.0305.0351.056.0637.0725l1.727 1c.3395.196.5872.5188.6886.8974.1015.3787.0484.7821-.1476 1.1216s-.5188.5872-.8975.6886c-.3786.1015-.782.0484-1.1215-.1476l-1.606-.927c-.1048.828-.5079 1.5894-1.1338 2.1417-.6259.5522-1.4315.8573-2.2662.8583h-2.352c-.1021 0-.2-.0406-.2722-.1128s-.1128-.1701-.1128-.2722v-.194c.0003-.9094.3616-1.7814 1.0046-2.4244s1.5151-1.0044 2.4244-1.0046h.964l-2.134-1.232c-.7601-.4389-1.6223-.67-2.5-.67h-12.759v-5l2.133-.85c-.73552-1.4552-1.12206-3.0616-1.129-4.692-.00885-.0864-.01319-.1732-.013-.26-.03574-2.0987.43331-4.17516 1.36767-6.05466.93435-1.8795 2.30665-3.50697 4.00133-4.74536.26706-.19092.56921-.32719.8891-.40099.31988-.07379.65119-.08365.9749-.02901.3242.05385.6345.17145.913.346.278.17414.5192.40109.71.668l.029.041c.0905-.58993.389-1.12803.8417-1.51703.4526-.389 1.0295-.603232 1.6263-.603974 1.9201-.016887 3.8303.277944 5.656.873004.037-.062.077-.123.119-.183.1902-.2677.4313-.4953.7096-.66979.2782-.174484.5881-.292447.9119-.347144s.6552-.045058.9753.028368.6226.209199.8902.399566c1.6475 1.32734 2.936 3.04636 3.748 5 .3705.80545.6803 1.63742.927 2.489zm-1.281 4.96402v-.046l.009-.036c0-.05-.0015-.1-.003-.15s-.003-.1-.003-.15v-.026c-.0328-1.1654-.1935-2.3237-.479-3.45402-.0192-.06542-.0373-.13084-.0553-.19609-.0147-.05345-.0294-.10678-.0447-.15991-.2289-.82392-.5235-1.62817-.881-2.405-.014-.036-.029-.068-.044-.1l-.015-.031-.06-.128c-.042-.087-.084-.174-.127-.259-.4687-.96306-1.0585-1.86233-1.755-2.676-.0987-.11267-.1987-.22-.3-.322-.2424-.24971-.5061-.4779-.788-.682-.0535-.0381-.114-.06529-.178-.08-.0656-.01568-.1336-.01772-.2-.006-.065.01103-.1272.03482-.183.07-.0552.03471-.1031.07989-.141.133-.0386.05318-.0659.11378-.08.178-.0155.06558-.0175.13361-.006.2.0109.0646.0343.12644.069.182.0347.05584.0803.10413.134.142.3625.26803.6918.5782.981.924.3468.40834.6614.84298.941 1.3.265.42951.5064.87317.723 1.329-.7426-.83067-1.6035-1.54737-2.555-2.127-.25-.154-.513-.30234-.789-.445-.133-.067-.272-.133-.415-.2l-.1-.048-.208-.093c-.214-.09334-.4347-.18234-.662-.267l-.205-.075c-.3427-.12067-.701-.23067-1.075-.33-.8939-.23318-1.8069-.38579-2.728-.456-.2747-.022-.5553-.03767-.842-.047-.194-.006-.391-.009-.591-.009-.0335-.00003-.067.00298-.1.009-.1227.02355-.2321.09215-.3067.19232s-.109.22463-.0965.34891c.0125.12427.0711.23935.1643.32259.0931.08324.214.12861.3389.12718.484 0 .9483.018 1.393.054.9366.07288 1.8638.23801 2.768.493.0756.02371.1506.04621.2252.0686.0921.02765.1836.05511.2748.0844.4205.13866.8331.30023 1.236.484-.4089-.0869-.8237-.14306-1.241-.168-.168-.016-.333-.016-.5-.016h-5c-.167 0-.334.005-.5.015-.2.011-.4.03-.592.055l-.163.022c-1.5812.23495-3.06386.91197-4.277 1.953.3233-.44061.68253-.85369 1.074-1.235.33009-.32069.68375-.61618 1.058-.884.0866-.06161.1513-.1492.1848-.25008.0334-.10088.0338-.20979.0012-.31092-.0163-.04844-.0395-.09425-.069-.136-.0382-.05341-.0868-.09863-.1428-.13298s-.11826-.05714-.1832-.06702c-.065-.01086-.1315-.00877-.19568.00616-.06419.01493-.12479.0424-.17832.08084-.39411.28214-.76741.59227-1.117.928-.3972.37948-.76493.78867-1.1 1.224-.047.061-.093.122-.139.184l-.061.093c-1.402 1.96553-2.14078 4.32692-2.109 6.74102-.00198.0382.00104.0765.009.114v.1c.00131 1.3925.34471 2.7633 1 3.992.72446 1.3597 1.80513 2.4968 3.12627 3.2895 1.32113.7927 2.83303 1.2111 4.37373 1.2105h5c1.2382.0019 2.4617-.2673 3.5847-.7889s2.118-1.2828 2.9153-2.2301h.006c1.1606-1.3806 1.8519-3.0946 1.974-4.894.012-.176.02-.354.02-.533z"/></g></svg>
